<?xml version="1.0" encoding="utf-8"?>
<!-- Generator: Adobe Illustrator 21.0.2, SVG Export Plug-In . SVG Version: 6.00 Build 0)  -->
<svg version="1.1" id="Layer_1" xmlns="http://www.w3.org/2000/svg" xmlns:xlink="http://www.w3.org/1999/xlink" x="0px" y="0px"
	 viewBox="0 0 841.9 595.3" style="enable-background:new 0 0 841.9 595.3;" xml:space="preserve">
<g>
	<path d="M497.2,227.6c0,8.8-6.4,14.1-11.1,18.1c-1.8,1.5-5.1,4.2-5.1,5.2c0,4-3.2,7.2-7.1,7.2h-0.1c-3.9,0-7.2-3.1-7.2-7
		c-0.1-7.8,5.6-12.5,10.2-16.3c3.6-3,5.9-5.1,5.9-7.1c0-3.9-3.2-7.1-7.1-7.1c-3.9,0-7.1,3.2-7.1,7.1c0,4-3.2,7.2-7.2,7.2
		c-4,0-7.2-3.2-7.2-7.2c0-11.9,9.7-21.5,21.5-21.5S497.2,215.8,497.2,227.6L497.2,227.6z M474,264.7c-4,0-7,3.2-7,7.2v0.1
		c0,4,3.1,7.2,7,7.2c4,0,7.2-3.3,7.2-7.2C481.2,267.9,478,264.7,474,264.7L474,264.7z M328.9,314.9c-4,0-7.2,3.2-7.2,7.2
		c0,4,3.2,7.2,7.2,7.2h0.6c4,0,7.2-3.2,7.2-7.2c0-4-3.2-7.2-7.2-7.2H328.9z M353.9,314.9c-4,0-7.2,3.2-7.2,7.2c0,4,3.2,7.2,7.2,7.2
		h0.6c4,0,7.2-3.2,7.2-7.2c0-4-3.2-7.2-7.2-7.2H353.9z M565.4,199.9v81c0,19.2-15.4,34.8-34.6,34.8h-93.4c-1.8,0-3.3,0-4.6,0
		c-1.3,0-2.8,0-3.4,0c-0.6,0.4-2.1,1.8-3.5,3.1c-0.6,0.5-1.2,1.1-1.9,1.7l-26.4,24.1c-2.1,1.9-5.2,2.4-7.8,1.3
		c-2.6-1.1-4.4-3.7-4.4-6.6v-76.3H310c-11.3,0-20.6,9.2-20.6,20.5v81c0,11.3,9.3,20.1,20.6,20.1h104.3c1.8,0,3.5,0.8,4.8,2
		l21.5,19.8v-68.4c0-4,3.2-7.2,7.2-7.2c4,0,7.2,3.2,7.2,7.2v84.8c0,2.9-1.6,5.4-4.2,6.5c-0.9,0.4-1.9,0.6-2.9,0.6
		c-1.8,0-3.5-0.7-4.9-2l-31.6-29H310c-19.2,0-35-15.3-35-34.5v-81c0-19.2,15.8-34.9,35-34.9h75.4v-48.6c0-19.2,15.9-34.6,35.1-34.6
		h110.3C550,165.3,565.4,180.7,565.4,199.9L565.4,199.9z M551,199.9c0-11.3-8.9-20.2-20.2-20.2H420.5c-11.3,0-20.7,9-20.7,20.2v123
		l14.5-13.1c0.7-0.6,1.4-1.2,2-1.7c6.6-6.1,8.3-7.1,16.9-6.9c1.2,0,2.6,0,4.3,0h93.4c11.2,0,20.2-9.1,20.2-20.4V199.9z M551,199.9"
		/>
</g>
</svg>
